{
    "asset" : {
        "version" : "2.0",
        "generator" : "Khronos glTF Blender I/O v0.9.35"
    },
    "scene" : 0,
    "scenes" : [
        {
            "nodes" : [
                0,
                1,
                2,
                3,
                4
            ],
            "name" : "Scene"
        }
    ],
    "nodes" : [
        {
            "mesh" : 0,
            "name" : "Plane.001",
            "scale" : [
                5.000000476837158,
                5.000000476837158,
                5
            ],
            "rotation" : [
                0,
                0,
                -0.3826834559440613,
                0.9238795042037964
            ],
            "translation" : [
                7.953890323638916,
                5.570469379425049,
                0
            ]
        },
        {
            "mesh" : 1,
            "name" : "Plane",
            "scale" : [
                3,
                3,
                3
            ],
            "translation" : [
                -0.343543142080307,
                -0.7931204438209534,
                0
            ]
        },
        {
            "mesh" : 2,
            "translation" : [
                4.572022914886475,
                0.0025659441016614437,
                -0.003216145560145378
            ],
            "name" : "NurbsPath"
        },
        {
            "translation" : [
                4.076245307922363,
                5.903861999511719,
                -1.0054539442062378
            ],
            "rotation" : [
                0.16907575726509094,
                0.7558803558349609,
                -0.27217137813568115,
                0.570947527885437
            ],
            "name" : "Lamp"
        },
        {
            "translation" : [
                -7.108740329742432,
                5.306560039520264,
                -4.259912967681885
            ],
            "rotation" : [
                -0.20444048941135406,
                0.7955453991889954,
                -0.4013098180294037,
                -0.40529248118400574
            ],
            "name" : "Camera"
        }
    ],
    "materials" : [
        {
            "emissiveFactor" : [
                0.800000011920929,
                0.800000011920929,
                0.800000011920929
            ],
            "pbrMetallicRoughness" : {},
            "name" : "Material.003"
        },
        {
            "pbrMetallicRoughness" : {},
            "name" : "Material.002"
        },
        {
            "pbrMetallicRoughness" : {},
            "name" : "Material.001"
        }
    ],
    "meshes" : [
        {
            "primitives" : [
                {
                    "attributes" : {
                        "POSITION" : 0,
                        "NORMAL" : 1
                    },
                    "indices" : 2,
                    "material" : 0
                }
            ],
            "name" : "Plane.002"
        },
        {
            "primitives" : [
                {
                    "attributes" : {
                        "POSITION" : 0,
                        "NORMAL" : 1
                    },
                    "indices" : 2,
                    "material" : 1
                }
            ],
            "name" : "Plane.002"
        },
        {
            "primitives" : [
                {
                    "attributes" : {
                        "POSITION" : 3,
                        "NORMAL" : 4
                    },
                    "indices" : 5,
                    "material" : 2
                }
            ],
            "name" : "CUNurbsPath.000"
        }
    ],
    "accessors" : [
        {
            "max" : [
                1,
                0,
                1
            ],
            "componentType" : 5126,
            "count" : 4,
            "type" : "VEC3",
            "min" : [
                -1,
                0,
                -1
            ],
            "bufferView" : 0
        },
        {
            "count" : 4,
            "componentType" : 5126,
            "type" : "VEC3",
            "bufferView" : 1
        },
        {
            "count" : 6,
            "componentType" : 5123,
            "type" : "SCALAR",
            "bufferView" : 2
        },
        {
            "max" : [
                -2.6776645183563232,
                0.9071884751319885,
                1.044655203819275
            ],
            "componentType" : 5126,
            "count" : 39552,
            "type" : "VEC3",
            "min" : [
                -5.948624610900879,
                -0.7928116917610168,
                -1.0382230281829834
            ],
            "bufferView" : 3
        },
        {
            "count" : 39552,
            "componentType" : 5126,
            "type" : "VEC3",
            "bufferView" : 4
        },
        {
            "count" : 236544,
            "componentType" : 5123,
            "type" : "SCALAR",
            "bufferView" : 5
        }
    ],
    "bufferViews" : [
        {
            "buffer" : 0,
            "byteOffset" : 0,
            "byteLength" : 48
        },
        {
            "buffer" : 0,
            "byteOffset" : 48,
            "byteLength" : 48
        },
        {
            "buffer" : 0,
            "byteOffset" : 96,
            "byteLength" : 12
        },
        {
            "buffer" : 0,
            "byteOffset" : 108,
            "byteLength" : 474624
        },
        {
            "buffer" : 0,
            "byteOffset" : 474732,
            "byteLength" : 474624
        },
        {
            "buffer" : 0,
            "byteOffset" : 949356,
            "byteLength" : 473088
        }
    ],
    "buffers" : [
        {
            "uri" : "data:application/octet-stream;base64,",
            "byteLength" : 1422444
        }
    ]
}
