{
    "asset" : {
        "generator" : "Khronos glTF Blender I/O v0.9.35",
        "version" : "2.0"
    },
    "scene" : 0,
    "scenes" : [
        {
            "nodes" : [
                0,
                1,
                2
            ],
            "name" : "Scene"
        }
    ],
    "nodes" : [
        {
            "translation" : [
                0.0033287405967712402,
                0.19532980024814606,
                0
            ],
            "mesh" : 0,
            "rotation" : [
                0.7071067690849304,
                0,
                0,
                0.7071068286895752
            ],
            "scale" : [
                0.7304449677467346,
                0.7304449677467346,
                9.02606201171875
            ],
            "name" : "Torus"
        },
        {
            "translation" : [
                6.137259483337402,
                -6.306107997894287,
                5.848724842071533
            ],
            "rotation" : [
                0.16907575726509094,
                0.27217137813568115,
                0.7558803558349609,
                0.570947527885437
            ],
            "name" : "Lamp"
        },
        {
            "translation" : [
                7.481131553649902,
                -6.5076398849487305,
                5.34366512298584
            ],
            "camera" : 0,
            "rotation" : [
                0.483536034822464,
                0.20870360732078552,
                0.33687159419059753,
                0.7804827094078064
            ],
            "name" : "Camera"
        }
    ],
    "cameras" : [
        {
            "type" : "perspective",
            "perspective" : {
                "zfar" : 100,
                "yfov" : 0.5033799372418416,
                "znear" : 0.10000000149011612
            },
            "name" : "Camera"
        }
    ],
    "materials" : [
        {
            "pbrMetallicRoughness" : {},
            "name" : "myMaterial"
        }
    ],
    "meshes" : [
        {
            "primitives" : [
                {
                    "material" : 0,
                    "attributes" : {
                        "NORMAL" : 0,
                        "POSITION" : 1,
                        "TEXCOORD_0" : 2
                    },
                    "indices" : 3
                }
            ],
            "name" : "Torus.001"
        }
    ],
    "accessors" : [
        {
            "componentType" : 5126,
            "type" : "VEC3",
            "count" : 36864,
            "bufferView" : 0
        },
        {
            "type" : "VEC3",
            "bufferView" : 1,
            "min" : [
                -1.2362194061279297,
                -1.2362194061279297,
                -0.23953324556350708
            ],
            "componentType" : 5126,
            "count" : 36864,
            "max" : [
                1.2362194061279297,
                1.2362194061279297,
                0.23953324556350708
            ]
        },
        {
            "componentType" : 5126,
            "type" : "VEC2",
            "count" : 36864,
            "bufferView" : 2
        },
        {
            "componentType" : 5123,
            "type" : "SCALAR",
            "count" : 55296,
            "bufferView" : 3
        }
    ],
    "bufferViews" : [
        {
            "buffer" : 0,
            "byteLength" : 442368,
            "byteOffset" : 0
        },
        {
            "buffer" : 0,
            "byteLength" : 442368,
            "byteOffset" : 442368
        },
        {
            "buffer" : 0,
            "byteLength" : 294912,
            "byteOffset" : 884736
        },
        {
            "buffer" : 0,
            "byteLength" : 110592,
            "byteOffset" : 1179648
        }
    ],
    "buffers" : [
        {
            "uri" : "data:application/octet-stream;base64,",
            "byteLength" : 1290240
        }
    ]
}
