{
    "asset" : {
        "version" : "2.0",
        "generator" : "Khronos glTF Blender I/O v0.9.35"
    },
    "scene" : 0,
    "scenes" : [
        {
            "nodes" : [
                0,
                1,
                2
            ],
            "name" : "Scene"
        }
    ],
    "nodes" : [
        {
            "rotation" : [
                0.16907575726509094,
                0.7558803558349609,
                -0.27217137813568115,
                0.570947527885437
            ],
            "name" : "Lamp",
            "translation" : [
                4.076245307922363,
                5.903861999511719,
                -1.0054539442062378
            ]
        },
        {
            "rotation" : [
                0.483536034822464,
                0.33687159419059753,
                -0.20870360732078552,
                0.7804827094078064
            ],
            "name" : "Camera",
            "translation" : [
                7.481131553649902,
                5.34366512298584,
                6.5076398849487305
            ]
        },
        {
            "rotation" : [
                0,
                0,
                -1,
                -4.371138828673793e-08
            ],
            "mesh" : 0,
            "translation" : [
                10.02090835571289,
                -3.0559349060058594,
                0
            ],
            "name" : "NurbsPath.002"
        }
    ],
    "meshes" : [
        {
            "primitives" : [
                {
                    "attributes" : {
                        "POSITION" : 0,
                        "NORMAL" : 1
                    },
                    "indices" : 2
                }
            ],
            "name" : "CUNurbsPath.006"
        }
    ],
    "accessors" : [
        {
            "count" : 3456,
            "min" : [
                -1.3149371147155762,
                -5.096112251281738,
                -0.3000001013278961
            ],
            "componentType" : 5126,
            "max" : [
                11.335844993591309,
                -0.9265704154968262,
                0.3000001013278961
            ],
            "type" : "VEC3",
            "bufferView" : 0
        },
        {
            "componentType" : 5126,
            "count" : 3456,
            "bufferView" : 1,
            "type" : "VEC3"
        },
        {
            "componentType" : 5123,
            "count" : 20664,
            "bufferView" : 2,
            "type" : "SCALAR"
        }
    ],
    "bufferViews" : [
        {
            "byteLength" : 41472,
            "byteOffset" : 0,
            "buffer" : 0
        },
        {
            "byteLength" : 41472,
            "byteOffset" : 41472,
            "buffer" : 0
        },
        {
            "byteLength" : 41328,
            "byteOffset" : 82944,
            "buffer" : 0
        }
    ],
    "buffers" : [
        {
            "uri" : "data:application/octet-stream;base64,",
            "byteLength" : 124272
        }
    ]
}
